<?xml version="1.0" encoding="UTF-8"?>
<svg data-bbox="30 82 522.4 152" viewBox="0 0 566.9 276" xmlns="http://www.w3.org/2000/svg" data-type="color">
    <g>
        <path d="M179.5 156.9c-2.7-2.3-5.4-4-8.1-5.1-2.8-1.1-5.7-1.6-8.8-1.6-6.9 0-12.5 2.2-16.8 6.6-4.3 4.4-6.5 10.1-6.5 17.1 0 3.5.5 6.7 1.6 9.5s2.7 5.3 4.8 7.5c2.1 2.1 4.6 3.8 7.4 4.9 2.8 1.1 5.7 1.7 8.9 1.7 3.1 0 6.1-.5 9-1.6 2.9-1 5.7-2.6 8.3-4.6v5.7c-2.6 1.6-5.4 2.8-8.3 3.7-2.9.9-5.8 1.3-8.7 1.3-3.9 0-7.6-.7-11.1-2.1-3.5-1.4-6.6-3.3-9.1-5.8-2.6-2.6-4.6-5.6-5.9-9-1.3-3.4-2-7.1-2-11.2 0-4 .7-7.7 2.1-11.2 1.4-3.5 3.4-6.4 5.9-8.9 2.5-2.5 5.5-4.4 9.1-5.8 3.5-1.4 7.2-2.1 11-2.1 3.4 0 6.6.5 9.5 1.4 2.9.9 5.6 2.3 7.9 4.2l-.2 5.4z" fill-rule="evenodd" clip-rule="evenodd" fill="#585857" data-color="1"/>
        <path d="M182.7 200.5l23.5-55.6 22.5 55.6h-5.3l-6.8-18.1h-21.8l-7.1 18.1h-5zm13.7-22.2H215l-9.1-23.2-9.5 23.2z" fill-rule="evenodd" clip-rule="evenodd" fill="#585857" data-color="1"/>
        <path d="M230.6 191.6l4.2-2.2c.8 2.6 2.1 4.7 4 6.1 1.9 1.4 4.2 2.2 6.9 2.2 3.4 0 6-1 7.9-3 1.9-2 2.8-4.8 2.8-8.3 0-2.6-.6-4.7-1.9-6.4-1.3-1.7-4-3.7-8.2-5.9-5.4-2.8-9-5.4-10.7-7.5-1.8-2.2-2.7-4.8-2.7-7.8 0-3.8 1.3-6.9 3.8-9.3 2.6-2.4 5.9-3.6 10-3.6 2.7 0 5 .6 7 1.7s3.6 2.8 4.8 5.1l-3.8 2.3c-.8-1.5-1.9-2.7-3.3-3.5-1.4-.8-3.1-1.2-5.1-1.2-2.6 0-4.7.8-6.3 2.3-1.6 1.5-2.3 3.6-2.3 6.3 0 3.7 3.1 7.2 9.3 10.5 1.1.6 2 1 2.6 1.3 4.6 2.5 7.6 4.9 9.1 7.1 1.5 2.2 2.3 5.1 2.3 8.7 0 4.8-1.4 8.6-4.2 11.4-2.8 2.8-6.6 4.2-11.4 4.2-3.5 0-6.5-.9-9-2.6-2.5-1.9-4.4-4.5-5.8-7.9" fill-rule="evenodd" clip-rule="evenodd" fill="#585857" data-color="1"/>
        <path d="M264.6 200.5l23.5-55.6 22.5 55.6h-5.3l-6.8-18.1h-21.8l-7.1 18.1h-5zm13.6-22.2h18.6l-9.1-23.2-9.5 23.2z" fill-rule="evenodd" clip-rule="evenodd" fill="#585857" data-color="1"/>
        <path d="M366.3 172.6c0 8.8-2.4 15.8-7.2 21.1-4.8 5.3-11.2 8-19.3 8-8.1 0-14.7-2.8-19.9-8.3-5.2-5.5-7.8-12.5-7.8-21.1 0-8.5 2.6-15.5 7.8-21 5.2-5.6 11.8-8.3 19.7-8.3 5 0 9.3.9 13.1 2.8 3.7 1.9 6.9 4.8 9.6 8.7l-5.3 4.1c-2-3-4.4-5.3-7.3-6.8-2.9-1.5-6.2-2.3-9.9-2.3-6.1 0-11.1 2.2-14.9 6.5-3.9 4.3-5.8 9.9-5.8 16.6 0 6.4 2 11.8 5.9 16.1 3.9 4.3 8.9 6.4 14.8 6.4 5.1 0 9.4-1.6 12.8-4.7 3.4-3.2 5.4-7.2 5.9-12.2h-17v-6.6h24.7v1z" fill="#b0ca0a" fill-rule="evenodd" clip-rule="evenodd" data-color="2"/>
        <path d="M407.5 200.5H399l-16.6-26.3h-2v26.3h-7v-56.4h12.7c6 0 10.6 1.3 13.8 3.9 3.2 2.6 4.8 6.4 4.8 11.3 0 4.4-1.3 7.9-3.9 10.4-2.6 2.6-6.2 3.9-10.8 4.1l17.5 26.7zm-9.8-40.7c0-3.1-1-5.4-3-6.9-2-1.4-5.1-2.2-9.4-2.2h-4.9v17.6h4.9c4.3 0 7.5-.7 9.5-2 1.9-1.3 2.9-3.5 2.9-6.5z" fill="#b0ca0a" fill-rule="evenodd" clip-rule="evenodd" data-color="2"/>
        <path d="M462.8 200.5H455l-7.2-16.3h-23.4l-7.2 16.3h-7.8l26.7-58 26.7 58zm-17.6-22.2l-9.1-20.5-9.1 20.5h18.2z" fill="#b0ca0a" fill-rule="evenodd" clip-rule="evenodd" data-color="2"/>
        <path d="M497.6 185.5c0 5.1-1.6 9-4.7 11.9-3.1 2.9-7.4 4.3-12.9 4.3-3.8 0-7.1-.8-9.9-2.5-2.8-1.7-4.9-4-6.2-7l4.9-4.4c.9 2.3 2.3 4.1 4.3 5.4 2 1.3 4.4 2 7.1 2 3.3 0 5.8-.8 7.6-2.4 1.8-1.6 2.7-3.9 2.7-6.9 0-2.5-.9-4.6-2.7-6.5-1.8-1.9-4.8-3.8-8.9-5.9-4.9-2.5-8.3-4.9-10.2-7.3-1.9-2.4-2.9-5.4-2.9-9 0-4.3 1.4-7.7 4.3-10.3 2.9-2.6 6.7-3.9 11.5-3.9 2.9 0 5.5.6 7.7 1.7s4 2.8 5.5 5l-4.6 4.6c-.9-1.5-2.1-2.6-3.6-3.5-1.6-.8-3.3-1.2-5.2-1.2-2.6 0-4.7.7-6.2 2s-2.3 3.1-2.3 5.3c0 2.1.6 3.8 1.8 5.3 1.2 1.5 3.7 3.2 7.4 5.2 6.4 3.5 10.7 6.5 12.6 9.1 2 2.4 2.9 5.5 2.9 9" fill="#b0ca0a" fill-rule="evenodd" clip-rule="evenodd" data-color="2"/>
        <path d="M535.8 185.5c0 5.1-1.6 9-4.7 11.9-3.1 2.9-7.4 4.3-12.9 4.3-3.8 0-7.1-.8-9.9-2.5-2.8-1.7-4.9-4-6.2-7l4.9-4.4c.9 2.3 2.3 4.1 4.3 5.4 2 1.3 4.4 2 7.1 2 3.3 0 5.8-.8 7.6-2.4 1.8-1.6 2.7-3.9 2.7-6.9 0-2.5-.9-4.6-2.7-6.5-1.8-1.9-4.8-3.8-8.9-5.9-4.9-2.5-8.3-4.9-10.2-7.3-1.9-2.4-2.9-5.4-2.9-9 0-4.3 1.4-7.7 4.3-10.3 2.9-2.6 6.7-3.9 11.5-3.9 2.9 0 5.5.6 7.7 1.7s4 2.8 5.5 5l-4.6 4.6c-.9-1.5-2.1-2.6-3.6-3.5-1.6-.8-3.3-1.2-5.2-1.2-2.6 0-4.7.7-6.2 2s-2.3 3.1-2.3 5.3c0 2.1.6 3.8 1.8 5.3 1.2 1.5 3.7 3.2 7.4 5.2 6.4 3.5 10.7 6.5 12.6 9.1 1.9 2.4 2.9 5.5 2.9 9" fill="#b0ca0a" fill-rule="evenodd" clip-rule="evenodd" data-color="2"/>
        <path fill="#b0ca0a" fill-rule="evenodd" clip-rule="evenodd" d="M550.8 144.2v56.4h-7v-56.4h7z" data-color="2"/>
        <path d="M154 99.3c-3.1.7-11.3 7.9-13 9.2-5.7 4.5-10 5.3-10 5.3s5.4-23.3 26.8-25.4c21.4-2.1 22.9-6.4 22.9-6.4s-7.2 49.5-48.1 33.4c10.2-4.7 15.8-11 19-13.1 7.2-4.7 13.9-6.6 13.9-6.6s-3.9 0-11.5 3.6" fill="#b0ca0a" fill-rule="evenodd" clip-rule="evenodd" data-color="2"/>
        <path fill="#70706f" fill-rule="evenodd" clip-rule="evenodd" d="M30 201.6h59.6l72.1-78.6 23.4 21h9.8l-33.2-31.3h-48.9L30 201.6z" data-color="3"/>
        <path d="M311.8 206h6.3c3 0 5.3.6 6.9 1.8 1.6 1.2 2.3 2.9 2.3 5.2 0 1.7-.6 3.2-1.7 4.3-1.1 1.2-2.7 2-4.7 2.4.8.2 1.5.5 2.1 1.1.6.5 1.1 1.4 1.7 2.6l4.6 10.2h-2.9l-4.2-9.6c-.5-1.1-1.1-1.9-1.9-2.4-.7-.5-1.8-.7-3.1-.7h-2.7v12.7h-2.6V206zm2.6 2.3v10.3h3.2c2.1 0 3.8-.5 5-1.5 1.2-1 1.8-2.3 1.8-4 0-1.6-.5-2.8-1.6-3.6-1.1-.8-2.8-1.2-5-1.2h-3.4z" fill="#70706f" fill-rule="evenodd" clip-rule="evenodd" data-color="3"/>
        <path d="M348.6 222.7v1.4h-14.3c.1 2.5.7 4.4 2 5.8 1.3 1.3 3 2 5.3 2 .9 0 1.8-.1 2.7-.4.9-.2 1.8-.6 2.7-1.1v2.5c-.9.4-1.8.7-2.7.8-.9.2-1.9.3-2.9.3-3 0-5.3-.9-7-2.8-1.7-1.8-2.5-4.4-2.5-7.7 0-3.1.8-5.6 2.5-7.4 1.6-1.9 3.8-2.8 6.4-2.8 2.4 0 4.3.8 5.7 2.5 1.4 1.7 2.1 4 2.1 6.9m-2.5-.4c-.1-2.2-.7-3.9-1.7-5.1-1-1.2-2.3-1.8-4-1.8-1.6 0-3 .6-4.1 1.9-1.1 1.2-1.7 2.9-1.9 5h11.7z" fill="#70706f" fill-rule="evenodd" clip-rule="evenodd" data-color="3"/>
        <path fill="#70706f" fill-rule="evenodd" clip-rule="evenodd" d="M350.2 213.8h2.6l5.8 17.5 5.9-17.5h2.4l-7 19.7h-3l-6.7-19.7z" data-color="3"/>
        <path d="M385.8 222.7v1.4h-14.3c.1 2.5.7 4.4 2 5.8 1.3 1.3 3 2 5.3 2 .9 0 1.8-.1 2.7-.4.9-.2 1.8-.6 2.7-1.1v2.5c-.9.4-1.8.7-2.7.8-.9.2-1.9.3-2.9.3-3 0-5.3-.9-7-2.8-1.7-1.8-2.5-4.4-2.5-7.7 0-3.1.8-5.6 2.5-7.4 1.6-1.9 3.8-2.8 6.4-2.8 2.4 0 4.3.8 5.7 2.5 1.4 1.7 2.1 4 2.1 6.9m-2.4-.4c-.1-2.2-.7-3.9-1.7-5.1-1-1.2-2.3-1.8-4-1.8-1.6 0-3 .6-4.1 1.9-1.1 1.2-1.7 2.9-1.9 5h11.7z" fill="#70706f" fill-rule="evenodd" clip-rule="evenodd" data-color="3"/>
        <path d="M400.2 214.2v2.3c-.8-.3-1.5-.6-2.3-.7-.8-.2-1.6-.3-2.4-.3-1.3 0-2.3.3-3.1.8-.8.5-1.2 1.2-1.2 2.1 0 1.2 1.3 2.4 3.9 3.5.3.1.5.2.6.3 2 .9 3.5 1.9 4.2 2.7.8.9 1.2 1.9 1.2 3.2 0 1.7-.7 3.1-2 4.1-1.3 1-3.1 1.5-5.4 1.5-1 0-1.9-.1-2.8-.2-.9-.2-1.7-.4-2.5-.7v-2.3c.9.4 1.7.7 2.6.9.9.2 1.7.3 2.6.3 1.4 0 2.6-.3 3.5-1 .9-.6 1.3-1.5 1.3-2.5 0-.8-.3-1.5-.8-2.1-.5-.6-1.8-1.3-3.9-2.3-2.1-1-3.4-1.8-4.1-2.6-.7-.8-1-1.7-1-2.8 0-1.4.6-2.6 1.8-3.5 1.2-.9 2.8-1.4 4.7-1.4.9 0 1.8.1 2.6.2 1 .1 1.8.3 2.5.5" fill="#70706f" fill-rule="evenodd" clip-rule="evenodd" data-color="3"/>
        <path d="M410.2 207.9v5.9h4.7v2h-4.7v11.6c0 1.6.2 2.7.7 3.3.4.6 1.2.9 2.2.9.3 0 .7 0 1-.1.3-.1.7-.2 1-.3v2.2c-.4.1-.8.2-1.3.3-.4.1-.9.1-1.3.1-1.8 0-3-.5-3.8-1.4-.7-.9-1.1-2.5-1.1-4.7v-12h-4.1v-2h4.1v-5l2.6-.8z" fill="#70706f" fill-rule="evenodd" clip-rule="evenodd" data-color="3"/>
        <path d="M419.3 204.5h2.9v3.2h-2.9v-3.2zm.2 9.3h2.6v19.8h-2.6v-19.8z" fill="#70706f" fill-rule="evenodd" clip-rule="evenodd" data-color="3"/>
        <path d="M443.6 217.7c.7-1.4 1.6-2.5 2.8-3.2 1.1-.8 2.4-1.1 3.8-1.1 2.1 0 3.6.7 4.7 2 1.1 1.4 1.6 3.4 1.6 6v12.1h-2.6V222c0-2.2-.3-3.8-1-4.9-.7-1-1.7-1.5-3.2-1.5-1.8 0-3.2.7-4.2 2s-1.5 3.2-1.5 5.6v10.3h-2.5V222c0-2.2-.3-3.8-1-4.8s-1.7-1.6-3.2-1.6c-1.8 0-3.2.7-4.2 2s-1.5 3.2-1.5 5.6v10.3H429v-19.8h2.4v3.7c.7-1.3 1.6-2.4 2.7-3.1 1.1-.7 2.4-1.1 3.8-1.1s2.6.4 3.6 1.1c.9.9 1.6 2 2.1 3.4" fill="#70706f" fill-rule="evenodd" clip-rule="evenodd" data-color="3"/>
        <path d="M478.2 222.7v1.4h-14.3c.1 2.5.7 4.4 2 5.8 1.3 1.3 3 2 5.3 2 .9 0 1.8-.1 2.7-.4.9-.2 1.8-.6 2.7-1.1v2.5c-.9.4-1.8.7-2.7.8-.9.2-1.9.3-2.9.3-3 0-5.3-.9-7-2.8-1.7-1.8-2.5-4.4-2.5-7.7 0-3.1.8-5.6 2.5-7.4 1.6-1.9 3.8-2.8 6.4-2.8 2.4 0 4.3.8 5.7 2.5 1.4 1.7 2.1 4 2.1 6.9m-2.5-.4c-.1-2.2-.7-3.9-1.7-5.1-1-1.2-2.3-1.8-4-1.8-1.6 0-3 .6-4.1 1.9-1.1 1.2-1.7 2.9-1.9 5h11.7z" fill="#70706f" fill-rule="evenodd" clip-rule="evenodd" data-color="3"/>
        <path d="M498.6 221.5v12.1H496v-11.5c0-2.2-.4-3.9-1.2-4.9-.8-1-2-1.6-3.7-1.6-1.9 0-3.3.7-4.4 2-1.1 1.3-1.6 3.2-1.6 5.7v10.3h-2.6v-19.8h2.4v3.7c.7-1.4 1.7-2.4 2.8-3.1 1.1-.7 2.5-1 4.1-1 2.2 0 3.8.7 5 2.1 1.3 1.3 1.8 3.3 1.8 6" fill="#70706f" fill-rule="evenodd" clip-rule="evenodd" data-color="3"/>
        <path d="M509.4 207.9v5.9h4.7v2h-4.7v11.6c0 1.6.2 2.7.7 3.3.4.6 1.2.9 2.2.9.3 0 .7 0 1-.1.3-.1.7-.2 1-.3v2.2c-.4.1-.8.2-1.3.3-.4.1-.9.1-1.3.1-1.8 0-3-.5-3.8-1.4-.7-.9-1.1-2.5-1.1-4.7v-12h-4.1v-2h4.1v-5l2.6-.8z" fill="#70706f" fill-rule="evenodd" clip-rule="evenodd" data-color="3"/>
        <path d="M526.7 213.3c2.9 0 5.1.9 6.8 2.8 1.7 1.9 2.5 4.4 2.5 7.5 0 3.2-.8 5.7-2.5 7.6-1.7 1.9-4 2.8-6.8 2.8s-5.1-.9-6.8-2.8c-1.7-1.9-2.6-4.4-2.6-7.6 0-3.2.8-5.7 2.5-7.5 1.7-1.8 4-2.8 6.9-2.8m0 2.1c-2 0-3.6.8-4.8 2.2-1.2 1.5-1.8 3.5-1.8 5.9 0 2.4.6 4.4 1.8 5.9 1.2 1.5 2.8 2.3 4.8 2.3s3.7-.7 4.9-2.2c1.2-1.5 1.8-3.5 1.8-6s-.6-4.5-1.8-6c-1.3-1.3-2.9-2.1-4.9-2.1z" fill="#70706f" fill-rule="evenodd" clip-rule="evenodd" data-color="3"/>
        <path d="M551.5 214.2v2.3c-.8-.3-1.5-.6-2.3-.7-.8-.2-1.6-.3-2.4-.3-1.3 0-2.3.3-3.1.8-.8.5-1.2 1.2-1.2 2.1 0 1.2 1.3 2.4 3.9 3.5.3.1.5.2.6.3 2 .9 3.5 1.9 4.2 2.7.8.9 1.2 1.9 1.2 3.2 0 1.7-.7 3.1-2 4.1-1.3 1-3.1 1.5-5.4 1.5-1 0-1.9-.1-2.8-.2-.9-.2-1.7-.4-2.5-.7v-2.3c.9.4 1.7.7 2.6.9.9.2 1.7.3 2.6.3 1.4 0 2.6-.3 3.5-1 .9-.6 1.3-1.5 1.3-2.5 0-.8-.3-1.5-.8-2.1-.5-.6-1.8-1.3-3.9-2.3-2.1-1-3.4-1.8-4.1-2.6-.7-.8-1-1.7-1-2.8 0-1.4.6-2.6 1.8-3.5 1.2-.9 2.8-1.4 4.7-1.4.9 0 1.8.1 2.6.2.9.1 1.7.3 2.5.5" fill="#70706f" fill-rule="evenodd" clip-rule="evenodd" data-color="3"/>
    </g>
</svg>
